M48
;DRILL file {Pcbnew (2013-07-07 BZR 4022)-stable} date 23/07/2014 11:19:03
;FORMAT={-:-/ absolute / metric / decimal}
FMAT,2
METRIC,TZ
T1C0.635
T2C0.813
T3C1.016
%
G90
G05
M71
T1
X134.62Y-147.32
X134.62Y-152.4
X134.62Y-157.48
T2
X111.76Y-144.78
X111.76Y-147.32
X111.76Y-149.86
X111.76Y-152.4
X111.76Y-154.94
X111.76Y-157.48
X111.76Y-160.02
X111.76Y-162.56
X119.38Y-147.32
X119.38Y-152.4
X119.38Y-157.48
X127.Y-147.32
X127.Y-152.4
X127.Y-157.48
X129.54Y-147.32
X129.54Y-152.4
X129.54Y-157.48
X132.08Y-147.32
X132.08Y-152.4
X132.08Y-157.48
T3
X119.38Y-142.24
X119.38Y-144.78
X119.38Y-160.02
X119.38Y-162.56
X121.92Y-142.24
X121.92Y-144.78
X121.92Y-160.02
X121.92Y-162.56
X137.16Y-149.86
X137.16Y-152.4
X137.16Y-154.94
X139.7Y-149.86
X139.7Y-152.4
X139.7Y-154.94
T0
M30
